{"title":"Hot.Tub.Time.Machine.2010.TS.H264.FEEL-FREE","uid":5605632,"size":1108373530,"categoryP":"video","categoryS":"movies","magnet":"?xt=urn:btih:82e02f549a9065dd8a5eb159720d54c2f9c8f60f&amp;dn=Hot.Tub.Time.Machine.2010.TS.H264.FEEL-FREE&amp;tr=udp%3A%2F%2Ftracker.openbittorrent.com%3A80&amp;tr=udp%3A%2F%2Fopen.demonii.com%3A1337&amp;tr=udp%3A%2F%2Ftracker.coppersurfer.tk%3A6969&amp;tr=udp%3A%2F%2Fexodus.desync.com%3A6969","seeders":1,"leechers":0,"uploader":"xenl","files":8,"time":1275577978,"description":"+-------------------------------------------+\n|Hot.Tub.Time.Machine.2010.TS.H264.FEEL-FREE|\n+-------------------------------------------+\n\n............................................\nLanguage:English\nGenre:Comedy | Sci-Fi\nIMDB:http://www.imdb.com/title/tt1231587/\nEncoder: Tony2\nVideo Source:Hot Tub Time Machine [2010] Proper CamRip [RUS Audio][PhAnToM][PDU]Thanks\nAudio Source:RX Thanks\n.............................................\nGeneral\nComplete name : Hot.Tub.Time.Machine.2010.TS.H264.FEEL-FREE\nFormat : MPEG-4\nFormat profile : Base Media\nCodec ID : isom\nFile size : 1.03 GiB\nDuration : 1h 31mn\nOverall bit rate : 1 606 Kbps\n.............................................\nVideo\nID : 2\nFormat : AVC\nFormat/Info : Advanced Video Codec\nFormat profile : &lt;a class=&quot;__cf_email__&quot; href=&quot;/cdn-cgi/l/email-protection&quot; data-cfemail=&quot;27654654424b4e4942676b160914&quot;&gt;[email&amp;#160;protected]&lt;/a&gt;&lt;script cf-hash='f9e31' type=&quot;text/javascript&quot;&gt;\n/* &lt;![CDATA[ */!function(){try{var t=&quot;currentScript&quot;in document?document.currentScript:function(){for(var t=document.getElementsByTagName(&quot;script&quot;),e=t.length;e--;)if(t[e].getAttribute(&quot;cf-hash&quot;))return t[e]}();if(t&amp;&amp;t.previousSibling){var e,r,n,i,c=t.previousSibling,a=c.getAttribute(&quot;data-cfemail&quot;);if(a){for(e=&quot;&quot;,r=parseInt(a.substr(0,2),16),n=2;a.length-n;n+=2)i=parseInt(a.substr(n,2),16)^r,e+=String.fromCharCode(i);e=document.createTextNode(e),c.parentNode.replaceChild(e,c)}}}catch(u){}}();/* ]]&gt; */&lt;/script&gt;\nFormat settings, CABAC : No\nFormat settings, ReFrames : 1 frame\nCodec ID : avc1\nCodec ID/Info : Advanced Video Coding\nDuration : 1h 31mn\nBit rate mode : Variable\nBit rate : 1 505 Kbps\nWidth : 704 pixels\nHeight : 336 pixels\nDisplay aspect ratio : 2.095\nFrame rate mode : Constant\nFrame rate : 29.970 fps\nResolution : 24 bits\nColorimetry : 4:2:0\nScan type : Progressive\nBits/(Pixel*Frame) : 0.212\nStream size : 989 MiB (94%)\nLanguage : English\n..............................................\nAudio\nID : 1\nFormat : AAC\nFormat/Info : Advanced Audio Codec\nFormat version : Version 4\nFormat profile : LC\nFormat settings, SBR : No\nCodec ID : 40\nDuration : 1h 31mn\nBit rate mode : Constant\nBit rate : 96.0 Kbps\nChannel(s) : 2 channels\nChannel positions : L R\nSampling rate : 44.1 KHz\nResolution : 16 bits\nStream size : 63.1 MiB (6%)\nLanguage : English\n.............................................\nPlot:\nFour guy friends, all of them bored with their adult lives, travel back to their respective 80s heydays thanks to a time-bending hot tub.","torrent":{"xt":"urn:btih:82e02f549a9065dd8a5eb159720d54c2f9c8f60f","amp;dn":"Hot.Tub.Time.Machine.2010.TS.H264.FEEL-FREE","amp;tr":["udp%3A%2F%2Ftracker.openbittorrent.com%3A80","udp%3A%2F%2Fopen.demonii.com%3A1337","udp%3A%2F%2Ftracker.coppersurfer.tk%3A6969","udp%3A%2F%2Fexodus.desync.com%3A6969"],"infoHash":"82e02f549a9065dd8a5eb159720d54c2f9c8f60f","infoHashBuffer":{"type":"Buffer","data":[130,224,47,84,154,144,101,221,138,94,177,89,114,13,84,194,249,200,246,15]},"announce":[],"urlList":[]}}